<svg xmlns="http://www.w3.org/2000/svg" viewBox="0 0 192 192">
  <path fill="#000" d="M102.519 166.76c3.496 0 6.33-2.834 6.33-6.33s-2.834-6.33-6.33-6.33c-3.4955 0-6.3295 2.834-6.3295 6.33s2.834 6.33 6.3295 6.33zm36.351-49.44-35.66 3.82c-.65.07-.99-.76-.47-1.17l34.9-27.1701c2.27-1.85 3.71-4.74 3.09-7.83-.62-4.74-4.53-7.83-9.48-7.21l-37.9203 5.55c-.67.1-1.03-.76-.49-1.17l37.5803-28.69c7.42-5.77 8.03-17.1 1.24-23.69-6.18-6.18-16.07-5.97-22.25.21l-60.5603 61.59c-2.27 2.47-3.3 5.77-2.68 9.2701 1.03 5.56 6.59 9.27 12.15 8.24l32.65-6.66c.71-.14 1.09.8.48 1.19l-36.22 23.18c-4.53 2.88-6.59 8.03-5.15 13.18 1.44 6.8 8.24 10.71 14.83 9.06l54.1403-13.34c.61-.15 1.06.56.66 1.05l-8.46 10.44c-2.27 2.88 1.44 6.8 4.53 4.53l27.81-22.87c4.94-4.12 1.65-12.15-4.74-11.54z"/>
</svg>